<svg xmlns="http://www.w3.org/2000/svg" viewBox="0 0 64 64">
  <path
    d="M21,22 H43 Q45,22 45,24 V37 Q45,39 43,39 H21 Q19,39 19,37 V24 Q19,22 21,22 Z
       M22.5,24.5 H41.5 Q42.5,24.5 42.5,25.5 V35.5 Q42.5,36.5 41.5,36.5 H22.5 Q21.5,36.5 21.5,35.5 V25.5 Q21.5,24.5 22.5,24.5 Z"
    fill="#ffffff" fill-rule="evenodd"/>
  <g fill="#ffffff">
    <rect x="24.5" y="26" width="6" height="2"/>
    <rect x="26.6" y="28" width="1.8" height="6.5"/>
    <rect x="33" y="26" width="1.8" height="8.5"/>
    <path d="M33.4,30.7 L36.11,26 H38.43 L33.4,34.7 Z"/>
    <path d="M33.4,29.8 L36.11,34.5 H38.43 L33.4,25.8 Z"/>
  </g>
  <path
    d="M17.5,41 H46.5 Q48,41 48,42.5 V45.5 Q48,47 46.5,47 H17.5 Q16,47 16,45.5 V42.5 Q16,41 17.5,41 Z
       M22,44 A2,2 0 1,0 26,44 A2,2 0 1,0 22,44 Z
       M38,44 A2,2 0 1,0 42,44 A2,2 0 1,0 38,44 Z
       M30.9,43.5 V39.3 Q30.9,37.5 32,37.5 Q33.1,37.5 33.1,39.3 V43.5 Z"
    fill="#ffffff" fill-rule="evenodd"/>
  <path d="M20.5,49 H43.5 Q45,49 45,50.5 V58.5 Q45,60 43.5,60 H20.5 Q19,60 19,58.5 V50.5 Q19,49 20.5,49 Z M31.2,52.5 H32.8 V55.5 H31.2 Z" fill="#ffffff" fill-rule="evenodd"/>
</svg>
